/* XPM */
static char *graphic[] = {
/* width height num_colors chars_per_pixel */
"32 32 351 2", 
/* colors */
"   c None",
".  c None",
"X  c None",
"o  c None",
"O  c None",
"+  c #05244B",
"@  c #017DB9",
"#  c None",
"$  c None",
"%  c None",
"&  c None",
"*  c #007BBD",
"=  c None",
"-  c None",
";  c #00AFF0",
":  c #05234A",
">  c None",
",  c None",
"<  c None",
"1  c #00C7FF",
"2  c #05224A",
"3  c None",
"4  c #052349",
"5  c None",
"6  c #0087C8",
"7  c None",
"8  c #0081C3",
"9  c None",
"0  c #008BCC",
"q  c None",
"w  c #0085C7",
"e  c #008DCE",
"r  c None",
"t  c #033264",
"y  c None",
"u  c None",
"i  c #0091D2",
"p  c None",
"a  c None",
"s  c None",
"d  c #052851",
"f  c None",
"g  c None",
"h  c #0093D4",
"j  c None",
"k  c #024076",
"l  c None",
"z  c None",
"x  c #008FD1",
"c  c None",
"v  c #0097D8",
"b  c #04305E",
"n  c #052349",
"m  c #052E57",
"M  c #0065AD",
"N  c None",
"B  c #0099DA",
"V  c None",
"C  c None",
"Z  c None",
"A  c #009BDC",
"S  c #00A3E3",
"D  c #00ADEF",
"F  c #009DDE",
"G  c #0071B8",
"H  c None",
"J  c #009FE0",
"K  c None",
"L  c None",
"P  c None",
"I  c #051B3F",
"U  c #006FB7",
"Y  c None",
"T  c #00A3E4",
"R  c #0077BE",
"E  c None",
"W  c None",
"Q  c None",
"!  c None",
"~  c #00A5E6",
"^  c None",
"/  c #00A7E8",
"(  c None",
")  c None",
"_  c None",
"`  c #00A9EA",
"'  c #051D3F",
"]  c None",
"[  c #060525",
"{  c None",
"}  c #00ABEC",
"|  c None",
" . c #034074",
".. c None",
"X. c #00ADEE",
"o. c #05193C",
"O. c #0378AF",
"+. c #033A6F",
"@. c None",
"#. c #00CEFF",
"$. c #007BC3",
"%. c None",
"&. c #00AFF0",
"*. c None",
"=. c None",
"-. c None",
";. c #052146",
":. c None",
">. c #060728",
",. c None",
"<. c None",
"1. c None",
"2. c None",
"3. c None",
"4. c None",
"5. c #00AEEF",
"6. c None",
"7. c #061333",
"8. c #0E76BB",
"9. c None",
"0. c #00B9FA",
"q. c #044A79",
"w. c None",
"e. c #061535",
"r. c #060F30",
"t. c None",
"y. c None",
"u. c #05254B",
"i. c #03588B",
"p. c None",
"a. c #061939",
"s. c #00AEEF",
"d. c #051D42",
"f. c #0E77BD",
"g. c #00AEEF",
"h. c None",
"j. c #0E76BC",
"k. c #035C8F",
"l. c #051F44",
"z. c #061536",
"x. c None",
"c. c #060F31",
"v. c #052147",
"b. c #052146",
"n. c #061738",
"m. c #0E76BC",
"M. c #00A1E7",
"N. c #033764",
"B. c #0070B1",
"V. c None",
"C. c #0078B8",
"Z. c None",
"A. c #00B1F5",
"S. c #061335",
"D. c None",
"F. c #036497",
"G. c #009DE4",
"H. c #051F45",
"J. c None",
"K. c #0E76BC",
"L. c None",
"P. c #052045",
"I. c #0E76BC",
"U. c None",
"Y. c None",
"T. c #0E76BC",
"R. c #006EB0",
"E. c None",
"W. c None",
"Q. c #007EBE",
"!. c #052248",
"~. c #042D57",
"^. c #052349",
"/. c #06193B",
"(. c #005A9F",
"). c #052248",
"_. c #0E76BC",
"`. c None",
"'. c #052248",
"]. c #0082C2",
"[. c None",
"{. c #0074B6",
"}. c #007CBD",
"|. c #00AEF0",
" X c #052248",
".X c #05244A",
"XX c #05234A",
"oX c #007EBF",
"OX c #05234A",
"+X c #052248",
"@X c #052248",
"#X c #052248",
"$X c #0E76BC",
"%X c #052248",
"&X c #052248",
"*X c #052248",
"=X c #0268A2",
"-X c #052248",
";X c #06173B",
":X c #0084C5",
">X c None",
",X c #00B7FD",
"<X c #052249",
"1X c #0080C2",
"2X c #0088C9",
"3X c #033969",
"4X c #052248",
"5X c #052248",
"6X c None",
"7X c #052248",
"8X c #0092D2",
"9X c None",
"0X c #00AEF0",
"qX c #006EB3",
"wX c #0084C6",
"eX c #008CCD",
"rX c #052248",
"tX c #008ECF",
"yX c #0088CA",
"uX c #052248",
"iX c #052248",
"pX c #00B3FB",
"aX c #04315E",
"sX c #0092D3",
"dX c #05244A",
"fX c #0094D5",
"gX c #009CDC",
"hX c #024177",
"jX c #052248",
"kX c #0096D7",
"lX c #052249",
"zX c #0E76BC",
"xX c #052248",
"cX c None",
"vX c #0098D9",
"bX c #006CB3",
"nX c #052248",
"mX c #009ADB",
"MX c #05244A",
"NX c None",
"BX c #00A2E2",
"VX c #052248",
"CX c #052248",
"ZX c #009CDD",
"AX c #052248",
"SX c #008ED1",
"DX c #052248",
"FX c #00AEF0",
"GX c #00B6F7",
"HX c #006AB2",
"JX c #009EDF",
"KX c #034F7F",
"LX c #052550",
"PX c #00A0E1",
"IX c #052248",
"UX c #0084C9",
"YX c #0E76BC",
"TX c #00A2E3",
"RX c None",
"EX c #00A4E5",
"WX c #0080C6",
"QX c #0E76BC",
"!X c #052248",
"~X c #0090D4",
"^X c #00A6E7",
"/X c #052248",
"(X c #0E76BC",
")X c #00AEEF",
"_X c #014F8B",
"`X c #052248",
"'X c #00A8E9",
"]X c #051437",
"[X c #007CC3",
"{X c #052248",
"}X c #060424",
"|X c #00AAEB",
" o c #009CDF",
".o c #052248",
"Xo c #008ED3",
"oo c #060626",
"Oo c #00ACED",
"+o c None",
"@o c #060828",
"#o c #00AEEF",
"$o c #043F6E",
"%o c #051A3D",
"&o c #052248",
"*o c #0084CB",
"=o c #060425",
"-o c #052248",
";o c #0E76BC",
":o c None",
">o c #052248",
",o c #060E2E",
"<o c #060829",
"1o c #052248",
"2o c #0E76BC",
"3o c #00AEF0",
"4o c #051A3E",
"5o c #061030",
"6o c #052248",
"7o c None",
"8o c #05244B",
"9o c None",
"0o c #052248",
"qo c None",
"wo c #0E76BC",
"eo c #00BFFF",
"ro c #052248",
"to c #0E76BC",
"yo c #061031",
"uo c None",
"io c #052248",
"po c #061838",
"ao c None",
"so c #052248",
"do c #051C41",
"fo c #0E76BC",
"go c #00CBFF",
"ho c None",
"jo c #061637",
"ko c #052248",
"lo c #061032",
"zo c None",
"xo c #052247",
"co c #052248",
"vo c None",
"bo c #00B8FB",
"no c #052248",
"mo c #052248",
"Mo c None",
"No c #00B2F6",
"Bo c #043059",
"Vo c #052248",
"Co c #052248",
"Zo c None",
"Ao c #0075B6",
"So c #052248",
"Do c #05244A",
"Fo c #052248",
"Go c #05244A",
"Ho c None",
"Jo c #05244B",
"Ko c #00A2E9",
"Lo c None",
"Po c #0079BA",
"Io c None",
"Uo c None",
"Yo c #024986",
"To c None",
"Ro c #00AFF0",
/* pixels */
"                        f *.J.@X@XL.=.l                         ",
"                  q ).-oFoFoFoFoFoFoFoFo1o Xa                   ",
"              % &XFoFoFoVoAX-XW.W.*XCXnoFoFoFo7X9               ",
"            ^ roFoFoIX*.$             # ..DXFoFoco-.            ",
"          w.FoFo0o*.                        { 6oFoFoD.          ",
"        3.FoFoAX#                             X jXFoFoV.        ",
"      C FoFoMX                                    iXFoFo)       ",
"    IosoFo8o                                        `XFomo#     ",
"    '.FoOXNX                                        = SoFo5X    ",
"  o moFoP.    ,.                                      J.FoFo<   ",
"  p.Fono-     u 8.z                                   LokoFoY.  ",
"  /XForX      uo9.foQXm.s                               &XFo>o  ",
"= FoFo]           ! fofofo(X_.Z vo                      L FoFoq ",
"K FoFo7             Y fofofofofofo4.                    O CoFo{ ",
"w.Foro                _ fofowo2.j.fot.                    &oFoZ.",
"Y.Fo{X                  +ofo2o    ;ofo<.                  VXFo+X",
"E.Fo`X                    :ofo$XI.tofofo6.                nXFo#X",
"y.Fou.                      1.f.fofofofofo%.              !XFo!.",
"P Fodo>                       aoQ T.YXfofofo6.          UokoFo:.",
"3 Fo<o9oc |.; Ro5.V Mo                6X9.zXfoK.[.      l FoFoj ",
"  .o>.F.1 ` X.#o3o&.3o0XcX                  @.g RX      U.FoioHo",
"  x.o.OX oA.~ 'X|XOoX.#o3oFX| ho                        I Fo%X  ",
"  # Go@oi.pXgXJ TX~ / ` } OoX.)Xs.>X                  O.[ For   ",
"    <X4o;X].M.8Xv mXF PXS ~ / ` } OoD g.E & `.. 9XeoGXBo]XxX    ",
"    o Joyo~.Xo~X2Xe i fXvXA JXPXT ^X'X|X} X.#oOo0.#.q.=o+ 5     ",
"      W ^.,oN.*oUXoX:X6 0 tXsXkXB ZXJ BXEX^X^Xbogok.}Xb.7o      ",
"        zoxo5oaXqX$.{.C.}.1XwXyXeXx h kXvXJX,XNoKX[ d.:         ",
"          ZoFo7.2 _XHXU R.B.AoPoQ.8 w SXG.Ko@ m ooH..X          ",
"            3.XX/.n.b Yo(.M bXG R [XWX* =X$oloc.Doqo            ",
"              p n b.po/.LXt +.k hX .3Xd S.r.l.dXy               ",
"                  K lXv.' a.n.n.joe.z.%o;.4 N                   ",
"                      , ( Y.4XuXrX%Xh.H To                      "
};
