/* XPM */
static char *result[] = {
/* columns rows colors chars-per-pixel */
"123 128 76 1 ",
"  c #060324",
". c #060827",
"X c #060C2C",
"o c #060F30",
"O c #061334",
"+ c #061639",
"@ c #061A3C",
"# c #051E43",
"$ c #052146",
"% c #052248",
"& c #042650",
"* c #042B54",
"= c #042E5B",
"- c #05325C",
"; c #043463",
": c #043A64",
"> c #03366A",
", c #043B6A",
"< c #023E75",
"1 c #04406C",
"2 c #034574",
"3 c #02427C",
"4 c #034D7F",
"5 c #014783",
"6 c #024D85",
"7 c #035486",
"8 c #02548C",
"9 c #035A8E",
"0 c #004F90",
"q c #015394",
"w c #025E94",
"e c #00569A",
"r c #005B9E",
"t c #026197",
"y c #01619D",
"u c #026A9F",
"i c #005EA3",
"p c #005FA9",
"a c #0062A5",
"s c #0268A2",
"d c #0065AA",
"f c #006BAD",
"g c #0371A3",
"h c #0277AE",
"j c #0279AD",
"k c #006EB1",
"l c #0073B4",
"z c #0076B9",
"x c #0E76BC",
"c c #007BBC",
"v c #0077C0",
"b c #007EC1",
"n c #0184BF",
"m c #0083C4",
"M c #018AC7",
"N c #0086C8",
"B c #008BCC",
"V c #0197CD",
"C c #008FD1",
"Z c #0093D4",
"A c #0097D9",
"S c #009BDC",
"D c #01A5DD",
"F c #009EE0",
"G c #00A3E4",
"H c #00ABE4",
"J c #00A7E8",
"K c #00ACED",
"L c #00ADF2",
"P c #00B2F4",
"I c #00B3F9",
"U c #00BCFE",
"Y c #00C3FE",
"T c #00CBFF",
"R c #00D0FF",
"E c None",
/* pixels */
"EEEEEEEEEEEEEEEEEEEEEEEEEEEEEEEEEEEEEEEEEEEEEEEEEEEEEEEEEEEEEEEEEEEEEEEEEEEEEEEEEEEEEEEEEEEEEEEEEEEEEEEEEEEEEEEEEEEEEEEEEEE",
"EEEEEEEEEEEEEEEEEEEEEEEEEEEEEEEEEEEEEEEEEEEEEEEEEEEEEEEEEEEEEEEEEEEEEEEEEEEEEEEEEEEEEEEEEEEEEEEEEEEEEEEEEEEEEEEEEEEEEEEEEEE",
"EEEEEEEEEEEEEEEEEEEEEEEEEEEEEEEEEEEEEEEEEEEEEEEEEEEEEEEEEEEEEEEEEEEEEEEEEEEEEEEEEEEEEEEEEEEEEEEEEEEEEEEEEEEEEEEEEEEEEEEEEEE",
"EEEEEEEEEEEEEEEEEEEEEEEEEEEEEEEEEEEEEEEEEEEEEEEEEEEEEEEEEEEEEEEEEEEEEEEEEEEEEEEEEEEEEEEEEEEEEEEEEEEEEEEEEEEEEEEEEEEEEEEEEEE",
"EEEEEEEEEEEEEEEEEEEEEEEEEEEEEEEEEEEEEEEEEEEEEEEEEEEEEEEEEEEEEEEEEEEEEEEEEEEEEEEEEEEEEEEEEEEEEEEEEEEEEEEEEEEEEEEEEEEEEEEEEEE",
"EEEEEEEEEEEEEEEEEEEEEEEEEEEEEEEEEEEEEEEEEEEEEEEEEEEEEEEEEEEEEEEEEEEEEEEEEEEEEEEEEEEEEEEEEEEEEEEEEEEEEEEEEEEEEEEEEEEEEEEEEEE",
"EEEEEEEEEEEEEEEEEEEEEEEEEEEEEEEEEEEEEEEEEEEEEEEEEEEE%%%%%%%%%%%%%%%%%%%%%%EEEEEEEEEEEEEEEEEEEEEEEEEEEEEEEEEEEEEEEEEEEEEEEEE",
"EEEEEEEEEEEEEEEEEEEEEEEEEEEEEEEEEEEEEEEEEEEEEEEE%%%%%%%%%%%%%%%%%%%%%%%%%%%%%%EEEEEEEEEEEEEEEEEEEEEEEEEEEEEEEEEEEEEEEEEEEEE",
"EEEEEEEEEEEEEEEEEEEEEEEEEEEEEEEEEEEEEEEEEEEEE%%%%%%%%%%%%%%%%%%%%%%%%%%%%%%%%%%%%EEEEEEEEEEEEEEEEEEEEEEEEEEEEEEEEEEEEEEEEEE",
"EEEEEEEEEEEEEEEEEEEEEEEEEEEEEEEEEEEEEEEEEE%%%%%%%%%%%%%%%%%%%%%%%%%%%%%%%%%%%%%%%%%%EEEEEEEEEEEEEEEEEEEEEEEEEEEEEEEEEEEEEEE",
"EEEEEEEEEEEEEEEEEEEEEEEEEEEEEEEEEEEEEEEE%%%%%%%%%%%%%%%%%%%%%%%%%%%%%%%%%%%%%%%%%%%%%%EEEEEEEEEEEEEEEEEEEEEEEEEEEEEEEEEEEEE",
"EEEEEEEEEEEEEEEEEEEEEEEEEEEEEEEEEEEEEE%%%%%%%%%%%%%%%%%%%%%%%%%%%%%%%%%%%%%%%%%%%%%%%%%%%EEEEEEEEEEEEEEEEEEEEEEEEEEEEEEEEEE",
"EEEEEEEEEEEEEEEEEEEEEEEEEEEEEEEEEEEE%%%%%%%%%%%%%%%%%%%%%%%%%%%%%%%%%%%%%%%%%%%%%%%%%%%%%%%EEEEEEEEEEEEEEEEEEEEEEEEEEEEEEEE",
"EEEEEEEEEEEEEEEEEEEEEEEEEEEEEEEEEE%%%%%%%%%%%%%%%%%%%%%%EEEEEEEEEEEEEE%%%%%%%%%%%%%%%%%%%%%%EEEEEEEEEEEEEEEEEEEEEEEEEEEEEEE",
"EEEEEEEEEEEEEEEEEEEEEEEEEEEEEEEE%%%%%%%%%%%%%%%%%%%EEEEEEEEEEEEEEEEEEEEEEEE%%%%%%%%%%%%%%%%%%%EEEEEEEEEEEEEEEEEEEEEEEEEEEEE",
"EEEEEEEEEEEEEEEEEEEEEEEEEEEEEEE%%%%%%%%%%%%%%%%%EEEEEEEEEEEEEEEEEEEEEEEEEEEEEE%%%%%%%%%%%%%%%%%EEEEEEEEEEEEEEEEEEEEEEEEEEEE",
"EEEEEEEEEEEEEEEEEEEEEEEEEEEEE%%%%%%%%%%%%%%%%EEEEEEEEEEEEEEEEEEEEEEEEEEEEEEEEEEEE%%%%%%%%%%%%%%%%EEEEEEEEEEEEEEEEEEEEEEEEEE",
"EEEEEEEEEEEEEEEEEEEEEEEEEEEE%%%%%%%%%%%%%%%EEEEEEEEEEEEEEEEEEEEEEEEEEEEEEEEEEEEEEEE%%%%%%%%%%%%%%%EEEEEEEEEEEEEEEEEEEEEEEEE",
"EEEEEEEEEEEEEEEEEEEEEEEEEEE%%%%%%%%%%%%%%EEEEEEEEEEEEEEEEEEEEEEEEEEEEEEEEEEEEEEEEEEEE%%%%%%%%%%%%%%EEEEEEEEEEEEEEEEEEEEEEEE",
"EEEEEEEEEEEEEEEEEEEEEEEEEE%%%%%%%%%%%%%EEEEEEEEEEEEEEEEEEEEEEEEEEEEEEEEEEEEEEEEEEEEEEEE%%%%%%%%%%%%%%EEEEEEEEEEEEEEEEEEEEEE",
"EEEEEEEEEEEEEEEEEEEEEEEEE%%%%%%%%%%%%%EEEEEEEEEEEEEEEEEEEEEEEEEEEEEEEEEEEEEEEEEEEEEEEEEEE%%%%%%%%%%%%%EEEEEEEEEEEEEEEEEEEEE",
"EEEEEEEEEEEEEEEEEEEEEEEE%%%%%%%%%%%%EEEEEEEEEEEEEEEEEEEEEEEEEEEEEEEEEEEEEEEEEEEEEEEEEEEEEE%%%%%%%%%%%%%EEEEEEEEEEEEEEEEEEEE",
"EEEEEEEEEEEEEEEEEEEEEEE%%%%%%%%%%%%EEEEEEEEEEEEEEEEEEEEEEEEEEEEEEEEEEEEEEEEEEEEEEEEEEEEEEEE%%%%%%%%%%%%%EEEEEEEEEEEEEEEEEEE",
"EEEEEEEEEEEEEEEEEEEEEE%%%%%%%%%%%EEEEEEEEEEEEEEEEEEEEEEEEEEEEEEEEEEEEEEEEEEEEEEEEEEEEEEEEEEEE%%%%%%%%%%%%EEEEEEEEEEEEEEEEEE",
"EEEEEEEEEEEEEEEEEEEEE%%%%%%%%%%%EEEEEEEEEEEEEEEEEEEEEEEEEEEEEEEEEEEEEEEEEEEEEEEEEEEEEEEEEEEEEE%%%%%%%%%%%%EEEEEEEEEEEEEEEEE",
"EEEEEEEEEEEEEEEEEEEE%%%%%%%%%%%EEEEEEEEEEEEEEEEEEEEEEEEEEEEEEEEEEEEEEEEEEEEEEEEEEEEEEEEEEEEEEEE%%%%%%%%%%%EEEEEEEEEEEEEEEEE",
"EEEEEEEEEEEEEEEEEEE%%%%%%%%%%%EEEEEEEEEEEEEEEEEEEEEEEEEEEEEEEEEEEEEEEEEEEEEEEEEEEEEEEEEEEEEEEEEE%%%%%%%%%%%EEEEEEEEEEEEEEEE",
"EEEEEEEEEEEEEEEEEE%%%%%%%%%%%EEEEEEEEEEEEEEEEEEEEEEEEEEEEEEEEEEEEEEEEEEEEEEEEEEEEEEEEEEEEEEEEEEEE%%%%%%%%%%%EEEEEEEEEEEEEEE",
"EEEEEEEEEEEEEEEEE%%%%%%%%%%%EEEEEEEEEEEEEEEEEEEEEEEEEEEEEEEEEEEEEEEEEEEEEEEEEEEEEEEEEEEEEEEEEEEEEE%%%%%%%%%%%EEEEEEEEEEEEEE",
"EEEEEEEEEEEEEEEEE%%%%%%%%%%EEEEEEEEEEEEEEEEEEEEEEEEEEEEEEEEEEEEEEEEEEEEEEEEEEEEEEEEEEEEEEEEEEEEEEEE%%%%%%%%%%EEEEEEEEEEEEEE",
"EEEEEEEEEEEEEEEE%%%%%%%%%%EEEEEEEEEEEEEEEEEEEEEEEEEEEEEEEEEEEEEEEEEEEEEEEEEEEEEEEEEEEEEEEEEEEEEEEEEE%%%%%%%%%%EEEEEEEEEEEEE",
"EEEEEEEEEEEEEEE%%%%%%%%%%EEEEEEEEEEEEEEEEEEEEEEEEEEEEEEEEEEEEEEEEEEEEEEEEEEEEEEEEEEEEEEEEEEEEEEEEEEEE%%%%%%%%%%EEEEEEEEEEEE",
"EEEEEEEEEEEEEEE%%%%%%%%%%EEEEEEEEEEEEEEEEEEEEEEEEEEEEEEEEEEEEEEEEEEEEEEEEEEEEEEEEEEEEEEEEEEEEEEEEEEEE%%%%%%%%%%EEEEEEEEEEEE",
"EEEEEEEEEEEEEE%%%%%%%%%%EEEEEEEEEEEEEEEEEEEEEEEEEEEEEEEEEEEEEEEEEEEEEEEEEEEEEEEEEEEEEEEEEEEEEEEEEEEEEE%%%%%%%%%%EEEEEEEEEEE",
"EEEEEEEEEEEEEE%%%%%%%%%EEEEEEEEEEEEEEEEEEEEEEEEEEEEEEEEEEEEEEEEEEEEEEEEEEEEEEEEEEEEEEEEEEEEEEEEEEEEEEEE%%%%%%%%%%EEEEEEEEEE",
"EEEEEEEEEEEEE%%%%%%%%%%EEEEEEEEEEEEEEEEEEEEEEEEEEEEEEEEEEEEEEEEEEEEEEEEEEEEEEEEEEEEEEEEEEEEEEEEEEEEEEEE%%%%%%%%%%EEEEEEEEEE",
"EEEEEEEEEEEE%%%%%%%%%%EEEEEEEEEEEEEEEEEEEEEEEEEEEEEEEEEEEEEEEEEEEEEEEEEEEEEEEEEEEEEEEEEEEEEEEEEEEEEEEEEE%%%%%%%%%%EEEEEEEEE",
"EEEEEEEEEEEE%%%%%%%%%EEEEEEEEEEEEEEEEEEEEEEEEEEEEEEEEEEEEEEEEEEEEEEEEEEEEEEEEEEEEEEEEEEEEEEEEEEEEEEEEEEEE%%%%%%%%%EEEEEEEEE",
"EEEEEEEEEEEE%%%%%%%%%EEEEEEEEEEEEEEEEEEEEEEEEEEEEEEEEEEEEEEEEEEEEEEEEEEEEEEEEEEEEEEEEEEEEEEEEEEEEEEEEEEEE%%%%%%%%%%EEEEEEEE",
"EEEEEEEEEEE%%%%%%%%%EEEEEEEEEEEEEEEEEEEEEEEEEEEEEEEEEEEEEEEEEEEEEEEEEEEEEEEEEEEEEEEEEEEEEEEEEEEEEEEEEEEEEE%%%%%%%%%EEEEEEEE",
"EEEEEEEEEEE%%%%%%%%%EEEEEEEEEEEEEEEEEEEEEEEEEEEEEEEEEEEEEEEEEEEEEEEEEEEEEEEEEEEEEEEEEEEEEEEEEEEEEEEEEEEEEE%%%%%%%%%%EEEEEEE",
"EEEEEEEEEE%%%%%%%%%EEEEEEEEEEEEEEEEEEEEEEEEEEEEEEEEEEEEEEEEEEEEEEEEEEEEEEEEEEEEEEEEEEEEEEEEEEEEEEEEEEEEEEEE%%%%%%%%%EEEEEEE",
"EEEEEEEEEE%%%%%%%%%EEEEEEEEEEEEEExxEEEEEEEEEEEEEEEEEEEEEEEEEEEEEEEEEEEEEEEEEEEEEEEEEEEEEEEEEEEEEEEEEEEEEEEE%%%%%%%%%EEEEEEE",
"EEEEEEEEEE%%%%%%%%EEEEEEEEEEEEEEEExxxxEEEEEEEEEEEEEEEEEEEEEEEEEEEEEEEEEEEEEEEEEEEEEEEEEEEEEEEEEEEEEEEEEEEEEE%%%%%%%%%EEEEEE",
"EEEEEEEEE%%%%%%%%%EEEEEEEEEEEEEEEEExxxxxxxEEEEEEEEEEEEEEEEEEEEEEEEEEEEEEEEEEEEEEEEEEEEEEEEEEEEEEEEEEEEEEEEEE%%%%%%%%%EEEEEE",
"EEEEEEEEE%%%%%%%%%EEEEEEEEEEEEEEEEEExxxxxxxxxEEEEEEEEEEEEEEEEEEEEEEEEEEEEEEEEEEEEEEEEEEEEEEEEEEEEEEEEEEEEEEE%%%%%%%%%EEEEEE",
"EEEEEEEEE%%%%%%%%EEEEEEEEEEEEEEEEEEEExxxxxxxxxxxEEEEEEEEEEEEEEEEEEEEEEEEEEEEEEEEEEEEEEEEEEEEEEEEEEEEEEEEEEEEE%%%%%%%%%EEEEE",
"EEEEEEEE%%%%%%%%%EEEEEEEEEEEEEEEEEEEEExxxxxxxxxxxxxEEEEEEEEEEEEEEEEEEEEEEEEEEEEEEEEEEEEEEEEEEEEEEEEEEEEEEEEEE%%%%%%%%%EEEEE",
"EEEEEEEE%%%%%%%%%EEEEEEEEEEEEEEEEEEEEEExxxxxxxxxxxxxxxxEEEEEEEEEEEEEEEEEEEEEEEEEEEEEEEEEEEEEEEEEEEEEEEEEEEEEE%%%%%%%%%EEEEE",
"EEEEEEEE%%%%%%%%EEEEEEEEEEEEEEEEEEEEEEEExxxxxxxxxxxxxxxxxxEEEEEEEEEEEEEEEEEEEEEEEEEEEEEEEEEEEEEEEEEEEEEEEEEEEE%%%%%%%%EEEEE",
"EEEEEEEE%%%%%%%%EEEEEEEEEEEEEEEEEEEEEEEEExxxxxxxxxxxxxxxxxxxxEEEEEEEEEEEEEEEEEEEEEEEEEEEEEEEEEEEEEEEEEEEEEEEEE%%%%%%%%%EEEE",
"EEEEEEE%%%%%%%%%EEEEEEEEEEEEEEEEEEEEEEEEEExxxxxxxxxxxxxxxxxxxxxxEEEEEEEEEEEEEEEEEEEEEEEEEEEEEEEEEEEEEEEEEEEEEE%%%%%%%%%EEEE",
"EEEEEEE%%%%%%%%%EEEEEEEEEEEEEEEEEEEEEEEEEEExxxxxxxxxxxxxxxxxxxxxxxxEEEEEEEEEEEEEEEEEEEEEEEEEEEEEEEEEEEEEEEEEEE%%%%%%%%%EEEE",
"EEEEEEE%%%%%%%%EEEEEEEEEEEEEEEEEEEEEEEEEEEEExxxxxxxxxxxxxxxxxxxxxxxxEEEEEEEEEEEEEEEEEEEEEEEEEEEEEEEEEEEEEEEEEEE%%%%%%%%EEEE",
"EEEEEEE%%%%%%%%EEEEEEEEEEEEEEEEEEEEEEEEEEEEEExxxxxxxxxxxxxxxxxxxxxxxxEEEEEEEEEEEEEEEEEEEEEEEEEEEEEEEEEEEEEEEEEE%%%%%%%%EEEE",
"EEEEEEE%%%%%%%%EEEEEEEEEEEEEEEEEEEEEEEEEEEEEEExxxxxxxxxxxxxxxxxxxxxxxxEEEEEEEEEEEEEEEEEEEEEEEEEEEEEEEEEEEEEEEEE%%%%%%%%EEEE",
"EEEEEEE%%%%%%%%EEEEEEEEEEEEEEEEEEEEEEEEEEEEEEExxxxxxxxxxxxxxxxEExxxxxxxEEEEEEEEEEEEEEEEEEEEEEEEEEEEEEEEEEEEEEEE%%%%%%%%%EEE",
"EEEEEE%%%%%%%%%EEEEEEEEEEEEEEEEEEEEEEEEEEEEEEEExxxxxxxxxxxxxEEEEEExxxxxxEEEEEEEEEEEEEEEEEEEEEEEEEEEEEEEEEEEEEEE%%%%%%%%%EEE",
"EEEEEE%%%%%%%%%EEEEEEEEEEEEEEEEEEEEEEEEEEEEEEEEExxxxxxxxxxxEEEEEEEExxxxxxEEEEEEEEEEEEEEEEEEEEEEEEEEEEEEEEEEEEEE%%%%%%%%%EEE",
"EEEEEE%%%%%%%%%EEEEEEEEEEEEEEEEEEEEEEEEEEEEEEEEEExxxxxxxxxxEEEEEEEExxxxxxxEEEEEEEEEEEEEEEEEEEEEEEEEEEEEEEEEEEEE%%%%%%%%%EEE",
"EEEEEE%%%%%%%%%EEEEEEEEEEEEEEEEEEEEEEEEEEEEEEEEEEExxxxxxxxxEEEEEEEExxxxxxxxEEEEEEEEEEEEEEEEEEEEEEEEEEEEEEEEEEEE%%%%%%%%%EEE",
"EEEEEE%%%%%%%%%EEEEEEEEEEEEEEEEEEEEEEEEEEEEEEEEEEEExxxxxxxxEEEEEEEExxxxxxxxxEEEEEEEEEEEEEEEEEEEEEEEEEEEEEEEEEEEE%%%%%%%%EEE",
"EEEEEE%%%%%%%%%EEEEEEEEEEEEEEEEEEEEEEEEEEEEEEEEEEEEExxxxxxxEEEEEEEExxxxxxxxxxEEEEEEEEEEEEEEEEEEEEEEEEEEEEEEEEEEE%%%%%%%%EEE",
"EEEEEE%%%%%%%%%EEEEEEEEEEEEEEEEEEEEEEEEEEEEEEEEEEEEEExxxxxxxEEEEEExxxxxxxxxxxxEEEEEEEEEEEEEEEEEEEEEEEEEEEEEEEEEE%%%%%%%%EEE",
"EEEEEE%%%%%%%%%EEEEEEEEEEEEEEEEEEEEEEEEEEEEEEEEEEEEEEExxxxxxxxEExxxxxxxxxxxxxxxEEEEEEEEEEEEEEEEEEEEEEEEEEEEEEEEE%%%%%%%%EEE",
"EEEEEE%%%%%%%%%EEEEEEEEEEEEEEEEEEEEEEEEEEEEEEEEEEEEEEEExxxxxxxxxxxxxxxxxxxxxxxxxEEEEEEEEEEEEEEEEEEEEEEEEEEEEEEE%%%%%%%%%EEE",
"EEEEEE%%%%%%%%%EEEEEEEEEEEEEEEEEEEEEEEEEEEEEEEEEEEEEEEEExxxxxxxxxxxxxxxxxxxxxxxxxEEEEEEEEEEEEEEEEEEEEEEEEEEEEEE%%%%%%%%%EEE",
"EEEEEE%%%%%%%%%EEEEEEEEEEEEEEEEEEEEEEEEEEEEEEEEEEEEEEEEEExxxxxxxxxxxxxxxxxxxxxxxxxEEEEEEEEEEEEEEEEEEEEEEEEEEEEE%%%%%%%%%EEE",
"EEEEEE%%%$%%%%%EEEEEEEEEEEEEEEEEEEEEEEEEEEEEEEEEEEEEEEEEEExxxxxxxxxxxxxxxxxxxxxxxxxEEEEEEEEEEEEEEEEEEEEEEEEEEEE%%%%%%%%%EEE",
"EEEEEEE%%%%%%%%EEEEEEEEEEEEEEEEEEEEEEEEEEEEEEEEEEEEEEEEEEEEExxxxxxxxxxxxxxxxxxxxxxxxEEEEEEEEEEEEEEEEEEEEEEEEEEE%%%%%%%%%EEE",
"EEEEEEE%%%%%%%%EEEEEEEEEEEEEEEEEEEEEEEEEEEEEEEEEEEEEEEEEEEEEEEExxxxxxxxxxxxxxxxxxxxxxEEEEEEEEEEEEEEEEEEEEEEEEEE%%%%%%%%EEEE",
"EEEEEEE%%%%%%%%EEEEEEEEEEEEEEEEEEEEEEEEEEEEEEEEEEEEEEEEEEEEEEEEEEEExxxxxxxxxxxxxxxxxxxEEEEEEEEEEEEEEEEEEEEEEEEE%%%%%%%%EEEE",
"EEEEEEE%%%%%%%%%EEEEEEEEEEEEEEEEEEEEEEEEEEEEEEEEEEEEEEEEEEEEEEEEEEEEEExxxxxxxxxxxxxxxxxEEEEEEEEEEEEEEEEEEEEEEEE%%%%%%%%EEEE",
"EEEEEEE%%%%%%%%%EEEEEEEEEEEEEEEEEEEEEEEEEEEEEEEEEEEEEEEEEEEEEEEEEEEEEEEEExxxxxxxxxxxxxxxEEEEEEEEEEEEEEEEEEEEEE%%%%%%%%%EEEE",
"EEEEEEE%%%%%%%%%EEEEEEEEEEEEEEEEEEEEEEEEEEEEEEEEEEEEEEEEEEEEEEEEEEEEEEEEEEEEExxxxxxxxxxxxEEEEEEEEEEEEEEEEEEEEE%%%%%%%%%EEEE",
"EEEEEEEE%%%%%%%$EEEEEKLKKPKKKPKPKPKPKEEEEEEEEEEEEEEEEEEEEEEEEEEEEEEEEEEEEEEEEEEExxxxxxxxxxEEEEEEEEEEEEEEEEEEEE%%%%%%%%%EEEE",
"EEEEEEEE%%%%%%%O:EPKKKKPKKKPKPKKPKKKPKPKKEEEEEEEEEEEEEEEEEEEEEEEEEEEEEEEEEEEEEEEEEEExxxxxxxEEEEEEEEEEEEEEEEEEE%%%%%%%%EEEEE",
"EEEEEEEE%%%%%%%O:UKKKKKKKKKKKKKKKKPKKKKKKPPKKEEEEEEEEEEEEEEEEEEEEEEEEEEEEEEEEEEEEEEEEEExxxxxEEEEEEEEEEEEEEEEE%%%%%%%%%EEEEE",
"EEEEEEEE%%%%%%%$OMUJJKKKKKKKKPKKKPKPKKPKKKKKPKKPEEEEEEEEEEEEEEEEEEEEEEEEEEEEEEEEEEEEEEEEEEExxEEEEEEEEEEEEEEEE%%%%%%%%%EEEEE",
"EEEEEEEEE%%%%%%%.7YJJJKJKJKKKKKKKKKPKPKKKPKPKKKKPKEEEEEEEEEEEEEEEEEEEEEEEEEEEEEEEEEEEEEEEEEEEEEEEEEEEEEEEEEEE%%%%%%%%%EEEEE",
"EEEEEEEEE%%%%%%%+*JLJJJJJJJKKJKKKKKKKKKKKKKKKKKPPKKKEEEEEEEEEEEEEEEEEEEEEEEEEEEEEEEEEEEEEEEEEEEEEEEEEEEEEEEE%%%%%%%%%EEEEEE",
"EEEEEEEEE%%%%%%%%.hUGJGGJJJJKJJKHKKKKKKKKPKKPKKKKKKPPKEEEEEEEEEEEEEEEEEEEEEEEEEEEEEEEEEEEEEEEEEEEEEEEEEEEEEE%%%%%%%%%EEEEEE",
"EEEEEEEEEE%%%%%$%X,IGGGGGGJJJJJJKHJKJKKKKKKKKKKPPKKKKPKPKEEEEEEEEEEEEEEEEEEEEEEEEEEEEEEEEEEEEEEEEEEEEEEEEEEE%%%%%%%%%EEEEEE",
"EEEEEEEEEE%%%%%%%$XnISSDGGGGGGJJJJJJKJJKKKKKKKKKKKKKKKKKKPKEEEEEEEEEEEEEEEEEEEEEEEEEEEEEEEEEEEEEEEEEEEEEEEE%%%%%%%%%EEEEEEE",
"EEEEEEEEEEE%%%%%%%X2ISSFSSGGDGGGGGGJJJJJKJKKKKKKKKKKKLKKPKKKPEEEEEEEEEEEEEEEEEEEEEEEEEEEEEEEEEEEEEEEEEEEEEE%%%%%%%%%EEEEEEE",
"EEEEEEEEEEE%%%%%%%$OmLSSSSSSFSFGGGGJGGJJJJJJKJKJKKKKKKKKKKKPKKKEEEEEEEEEEEEEEEEEEEEEEEEEEEEEEEEEEEEEEEEEEEO%%%%%%%%EEEEEEEE",
"EEEEEEEEEEE%%%%%%%%X1LAZSSASSSSFSGGGGGGGGGJHJJJJJKKKKKKKKKKKPKKKKPEEEEEEEEEEEEEEEEEEEEEEEEEEEEEEEEEEEEEEEVO#%%%%%%%EEEEEEEE",
"EEEEEEEEEEEE%%%%%%%%XhLZAAAASASSSSSSSGDFDGGGGJGJJJJJJKJKKKKKKKKPKKKLKEEEEEEEEEEEEEEEEEEEEEEEEEEEEEEEEEEEU-o%%%%%%%EEEEEEEEE",
"EEEEEEEEEEEE%%%%%%%%O=FAZZZZZAAASSSSSSFSSGGGGGGGGJJJJJJKJKKJKKKKKKKKKKKPEEEEEEEEEEEEEEEEEEEEEEEEEEEEEEKRs %%%%%%%%EEEEEEEEE",
"EEEEEEEEEEEEE%%%%%%%%.qJBCCZZZZAZAZASSSSSSSFSGFGGGGGGGGJJJJKJJKKKKKKKKKKKKPEEEEEEEEEEEEEEEEEEEEEEEEKKKYH@@%%%%%%%EEEEEEEEEE",
"EEEEEEEEEEEEE%%%%%%%%#+nFNCBBZCZZZZZZAASSSSSSSSGGGGJGGGGGJJJJJJJJKKKKKKKKKKKKKKKEEEEEEEEEEEEEEEELPKPKPT2.%%%%%%%%EEEEEEEEEE",
"EEEEEEEEEEEEEE%%%%%%%%o*SCMMBBBCBZZZZZZZZASASSSSSSSSDFGGGGGGGJJJJJJKJJKKKKKKKKKKKKKPKKPKKKPKKKPKKKKKKRj %%%%%%%%EEEEEEEEEEE",
"EEEEEEEEEEEEEEE%%%%%%%%X5FNNNNMBMCBCCCZZZZZZZSASSSSSSGSSDGGGGGGGJJJJJJJKKKKKJKKKKPKLKKKKPKKKPKPKKKKKTDO+%%%%%%%%EEEEEEEEEEE",
"EEEEEEEEEEEEEEE%%%%%%%%%osSbmmNNMNMBBCBCBZZZZZZZAAZSSSSSSSSFGGGGGGGJJJJJKJJKKJKKKKKKKPKKKKPKPKKKPKKYY&X%%%%%%%%EEEEEEEEEEEE",
"EEEEEEEEEEEEEEEE%%%%%%%%++zCcmmmmNNNNMBBBBBZBZZZZZZZAASSSSSSSSGSDGGGGGJGGJJJJJJKKKKKKJKKKPKKKPKPKKIT2.%%%%%%%%%EEEEEEEEEEEE",
"EEEEEEEEEEEEEEEE%%%%%%%%%+%bBccbbbmmmNNMMBBBBBZBZZZZZZAZZSSSSSSSSSFFGFGGGGGJJJJJJJJHKKKKKKKKKKKKKPR9 %%%%%%%%%EEEEEEEEEEEEE",
"EEEEEEEEEEEEEEEEE%%%$%%%%%O&NmzcccmmbmmmmmmMMBBCBBCCZZCZZZAZSASSSSSSSGSGSGGGGGGJJJJJJKJKJKHKKKKKPRg #%%%%%%%%EEEEEEEEEEEEEE",
"EEEEEEEEEEEEEEEEEE%%%%%%%%%O-NblzzzccccnmmmmmmNNMBBBBCBCCZZZZZZSZSSSSSSSSGSGGGGGGGGJJJJJJKKKKKKKRj #%%%%%%%%EEEEEEEEEEEEEEE",
"EEEEEEEEEEEEEEEEEEE%%%%%%%%%X;bvlllzzzcccbbmmmmmNNNNMBBBCCBZZZZZZZZASSSSSSSFSSGGGGGGGGJGJJJJJJKTj.@%%%%%%%%%EEEEEEEEEEEEEEE",
"EEEEEEEEEEEEEEEEEEE%%%%%%%%%%O=zcfllllzzzzccccbmbmmmNNNMMBBBBBZBZZZZZZZASSSSSSSSDSGSGGGGGGJJGKYu @%%%%%%%%%EEEEEEEEEEEEEEEE",
"EEEEEEEEEEEEEEEEEEEE%%%%%%%%%%O&kvffkklllllzzcccbcnnmmmmmMNBBBBBBZCCZZZZZZASSSSSSSSFDFFGGGGSIY7 #%%%%%%%%%EEEEEEEEEEEEEEEEE",
"EEEEEEEEEEEEEEEEEEEEE%%%%%%%%%%O#ivddffkklkllllzzczccbmbmmmmNNMBMBBBCCBZZZZZZZZASASSSSSFSGSUL, %%%%%%%%%%EEEEEEEEEEEEEEEEEE",
"EEEEEEEEEEEEEEEEEEEEEE%%%%%%%%%%+@6zfddffffhlllllzzzzzccmcmmmmmmNNMBBBBCBZBZZZZZZAAASSSSAJUB%.%%%%%%%%%%EEEEEEEEEEEEEEEEEEE",
"EEEEEEEEEEEEEEEEEEEEEEE%%%%%%%%%%#+,dlaadddffffkhlllzzzzzzccbcmmmmmNNNMMBBBBBCCZZZZZZAZZLLtOO&%%%%%%%%%EEEEEEEEEEEEEEEEEEEE",
"EEEEEEEEEEEEEEEEEEEEEEEE%%%%%%%%%%%O%qkdaaaddddddfkklhllllzzccccbbmmmmmmmMBNBBBCZBCZZCFLM;.@%%%%%%%%%%EEEEEEEEEEEEEEEEEEEEE",
"EEEEEEEEEEEEEEEEEEEEEEEEE%%%%%%%%%%%@O,akariasdddddffffkllllllzzzccbcbmmmmmNNNNBBBCCALZ0OX%%%%%%%%%%%EEEEEEEEEEEEEEEEEEEEEE",
"EEEEEEEEEEEEEEEEEEEEEEEEEE%%%%%%%%%%%%O%<pdprriiadddddddfhklllllzlzccccbmbbmmmmmMNCFAw%.#%%%%%%%%%%%EEEEEEEEEEEEEEEEEEEEEEE",
"EEEEEEEEEEEEEEEEEEEEEEEEEEE%%%%%%%%%%%%@+%3idirrrrayadsdddddfflkllllzzzzcccbbmmmCFNw*X@%%%%%%%%%%%EEEEEEEEEEEEEEEEEEEEEEEEE",
"EEEEEEEEEEEEEEEEEEEEEEEEEEEEE%%%%%%%%%%%%@+&2qpprrrriipaaddddsfffhfllllzlzzccmCCl6%X+%%%%%%%%%%%%EEEEEEEEEEEEEEEEEEEEEEEEEE",
"EEEEEEEEEEEEEEEEEEEEEEEEEEEEEE%%%%%%%%%%%%%@O$:5eppirrririrasdddddfffffhlzmNmlq,@X#&%#%%%%%%%%%%EEEEEEEEEEEEEEEEEEEEEEEEEEE",
"EEEEEEEEEEEEEEEEEEEEEEEEEEEEEEEE%%%%%%%%%%%%%$+@%:50rpppiiiiipaaaddfkzcvzkr6:#OO#%%%%%%%%%%%%%EEEEEEEEEEEEEEEEEEEEEEEEEEEEE",
"EEEEEEEEEEEEEEEEEEEEEEEEEEEEEEEEE%%%%%%%%%%%%%%%#++%*><5qqrppaaddddarq63,&@O+#%%%%%%%%%%%%%%%EEEEEEEEEEEEEEEEEEEEEEEEEEEEEE",
"EEEEEEEEEEEEEEEEEEEEEEEEEEEEEEEEEEE%%%%%%%%%%%%%%%%$@++@%&*=-;;;;==%%@+O+@%%%%%%%%%%%%%%%%%EEEEEEEEEEEEEEEEEEEEEEEEEEEEEEEE",
"EEEEEEEEEEEEEEEEEEEEEEEEEEEEEEEEEEEE%%%%%%%%%%%%%%%%%%%%#$@@@++++@###%%%%%%%%%%%%%%%%%%%%EEEEEEEEEEEEEEEEEEEEEEEEEEEEEEEEEE",
"EEEEEEEEEEEEEEEEEEEEEEEEEEEEEEEEEEEEEE%%%%%%%%%%%%%%%%%%%%%%%%%%%%%%%%%%%%%%%%%%%%%%%%%EEEEEEEEEEEEEEEEEEEEEEEEEEEEEEEEEEEE",
"EEEEEEEEEEEEEEEEEEEEEEEEEEEEEEEEEEEEEEEEE%%%%%%%%%%%%%%%%%%%%%%%%%%%%%%%%%%%%%%%%%%%%EEEEEEEEEEEEEEEEEEEEEEEEEEEEEEEEEEEEEE",
"EEEEEEEEEEEEEEEEEEEEEEEEEEEEEEEEEEEEEEEEEEE%%%%%%%%%%%%%%%%%%%%%%%%%%%%%%%%%%%%%%%EEEEEEEEEEEEEEEEEEEEEEEEEEEEEEEEEEEEEEEEE",
"EEEEEEEEEEEEEEEEEEEEEEEEEEEEEEEEEEEEEEEEEEEEEE%%%%%%%%%%%%%%%%%%%%%%%%%%%%%%%%%EEEEEEEEEEEEEEEEEEEEEEEEEEEEEEEEEEEEEEEEEEEE",
"EEEEEEEEEEEEEEEEEEEEEEEEEEEEEEEEEEEEEEEEEEEEEEEEE%%%%%%%%%%%%%%%%%%%%%%%%%%EEEEEEEEEEEEEEEEEEEEEEEEEEEEEEEEEEEEEEEEEEEEEEEE",
"EEEEEEEEEEEEEEEEEEEEEEEEEEEEEEEEEEEEEEEEEEEEEEEEEEEEEEE%%%%%%%%%%%%%%%EEEEEEEEEEEEEEEEEEEEEEEEEEEEEEEEEEEEEEEEEEEEEEEEEEEEE",
"EEEEEEEEEEEEEEEEEEEEEEEEEEEEEEEEEEEEEEEEEEEEEEEEEEEEEEEEEEEEEEEEEEEEEEEEEEEEEEEEEEEEEEEEEEEEEEEEEEEEEEEEEEEEEEEEEEEEEEEEEEE",
"EEEEEEEEEEEEEEEEEEEEEEEEEEEEEEEEEEEEEEEEEEEEEEEEEEEEEEEEEEEEEEEEEEEEEEEEEEEEEEEEEEEEEEEEEEEEEEEEEEEEEEEEEEEEEEEEEEEEEEEEEEE",
"EEEEEEEEEEEEEEEEEEEEEEEEEEEEEEEEEEEEEEEEEEEEEEEEEEEEEEEEEEEEEEEEEEEEEEEEEEEEEEEEEEEEEEEEEEEEEEEEEEEEEEEEEEEEEEEEEEEEEEEEEEE",
"EEEEEEEEEEEEEEEEEEEEEEEEEEEEEEEEEEEEEEEEEEEEEEEEEEEEEEEEEEEEEEEEEEEEEEEEEEEEEEEEEEEEEEEEEEEEEEEEEEEEEEEEEEEEEEEEEEEEEEEEEEE",
"EEEEEEEEEEEEEEEEEEEEEEEEEEEEEEEEEEEEEEEEEEEEEEEEEEEEEEEEEEEEEEEEEEEEEEEEEEEEEEEEEEEEEEEEEEEEEEEEEEEEEEEEEEEEEEEEEEEEEEEEEEE",
"EEEEEEEEEEEEEEEEEEEEEEEEEEEEEEEEEEEEEEEEEEEEEEEEEEEEEEEEEEEEEEEEEEEEEEEEEEEEEEEEEEEEEEEEEEEEEEEEEEEEEEEEEEEEEEEEEEEEEEEEEEE",
"EEEEEEEEEEEEEEEEEEEEEEEEEEEEEEEEEEEEEEEEEEEEEEEEEEEEEEEEEEEEEEEEEEEEEEEEEEEEEEEEEEEEEEEEEEEEEEEEEEEEEEEEEEEEEEEEEEEEEEEEEEE",
"EEEEEEEEEEEEEEEEEEEEEEEEEEEEEEEEEEEEEEEEEEEEEEEEEEEEEEEEEEEEEEEEEEEEEEEEEEEEEEEEEEEEEEEEEEEEEEEEEEEEEEEEEEEEEEEEEEEEEEEEEEE"
};
